<svg xmlns="http://www.w3.org/2000/svg">
  <defs>
    <symbol id='eth' viewBox='0 0 25 25' fill='currentColor'>
      <g transform="translate(7.001 4)">
        <path d="M448.636,509.484l5.275,7.432,5-7.635-5.078,3.336Z" transform="translate(-448.612 -499.916)" />
        <path d="M458.854,493.746l-5.3-8.31-4.975,8.5,5.2,2.854Z" transform="translate(-448.58 -485.436)" />
      </g>
      <path d="M0,0H25V25H0V0Z" fill='none' />
    </symbol>
    <symbol id='chevron-down' viewBox='0 0 30 30' fill='none' stroke='currentColor'>
      <path d="M5078.394,78.045l4.023,4,3.977-4" transform="translate(-5066.894 -64.545)" stroke-linecap="round"
        stroke-linejoin="round" />
    </symbol>
    <symbol id='search' viewBox='0 0 30 30' fill="currentColor">
      <path
        d="M7079.3,815.209l-8.687-8.687a7.457,7.457,0,1,0-1.4,1.4l8.688,8.687Zm-14.578-7.734a5.449,5.449,0,1,1,5.449-5.449A5.455,5.455,0,0,1,7064.725,807.475Z"
        transform="translate(-7053.303 -790.604)">
      </path>
    </symbol>
    <symbol id='menu' viewBox='0 0 30 30' stroke='currentColor'>
      <g fill="none" stroke-linecap="round" stroke-width="2" transform="translate(6 8.001)">
        <path d="M0,0H18"></path>
        <line x2="18" transform="translate(0 7)"></line>
        <line x2="18" transform="translate(0 14)"></line>
      </g>
    </symbol>
  </defs>
</svg>