<svg xmlns="http://www.w3.org/2000/svg">
  <defs>
    <symbol id='eth' viewBox='0 0 25 25' fill='currentColor'>
      <g transform="translate(7.001 4)">
        <path d="M448.636,509.484l5.275,7.432,5-7.635-5.078,3.336Z" transform="translate(-448.612 -499.916)" />
        <path d="M458.854,493.746l-5.3-8.31-4.975,8.5,5.2,2.854Z" transform="translate(-448.58 -485.436)" />
      </g>
      <path d="M0,0H25V25H0V0Z" fill='none' />
    </symbol>
    <symbol id='chevron-down' viewBox='0 0 30 30' fill='none' stroke='currentColor'>
      <path d="M5078.394,78.045l4.023,4,3.977-4" transform="translate(-5066.894 -64.545)" stroke-linecap="round"
        stroke-linejoin="round" />
    </symbol>
    <symbol id='chevron-up' viewBox='0 0 30 30' fill='none' stroke='currentColor'>
      <path stroke-linecap="round" stroke-linejoin="round" stroke-width="4"
        d="M-15165.582,3428.375l12-11.981s12.15,12.55,12,11.981" transform="translate(15168.582 -3407.394)"></path>
    </symbol>
    <symbol id='search' viewBox='0 0 30 30' fill="currentColor">
      <path
        d="M7079.3,815.209l-8.687-8.687a7.457,7.457,0,1,0-1.4,1.4l8.688,8.687Zm-14.578-7.734a5.449,5.449,0,1,1,5.449-5.449A5.455,5.455,0,0,1,7064.725,807.475Z"
        transform="translate(-7053.303 -790.604)">
      </path>
    </symbol>
    <symbol id='menu' viewBox='0 0 30 30' stroke='currentColor'>
      <g fill="none" stroke-linecap="round" stroke-width="2" transform="translate(6 8.001)">
        <path d="M0,0H18"></path>
        <line x2="18" transform="translate(0 7)"></line>
        <line x2="18" transform="translate(0 14)"></line>
      </g>
    </symbol>
    <symbol id='email' viewBox='0 0 20 20' fill='currentColor'>
      <g transform="translate(1 4)">
        <path d="M-845.776,1632.72l-9-7.8v10.556h18v-10.555Z" transform="translate(854.776 -1623.648)"></path>
        <path d="M-836.832,1623.648h-17.89l8.945,7.508Z" transform="translate(854.776 -1623.648)">
        </path>
      </g>
    </symbol>
    <symbol id='line' viewBox='0 0 20 20' fill='currentColor'>
      <path
        d="M-803.918,1642.033c0-3.748-3.588-6.8-8-6.8s-8,3.048-8,6.8c0,3.36,2.845,6.173,6.686,6.705.261.059.615.18.7.413a1.776,1.776,0,0,1,.026.757s-.1.591-.114.717c-.035.212-.161.828.693.451a25.922,25.922,0,0,0,6.286-4.863,6.183,6.183,0,0,0,1.719-4.181Zm-10.831,1.993a.16.16,0,0,1-.156.163h-2.242a.152.152,0,0,1-.107-.045.168.168,0,0,1-.044-.113v-3.649a.159.159,0,0,1,.156-.163h.562a.16.16,0,0,1,.156.163v2.9h1.528l-.009-.007h0a.16.16,0,0,1,.156.163Zm1.361.008a.159.159,0,0,1-.156.162h-.561a.16.16,0,0,1-.157-.162v-3.65h0a.159.159,0,0,1,.157-.162h.561a.16.16,0,0,1,.156.163Zm3.861-.015a.159.159,0,0,1-.156.162h-.561a.143.143,0,0,1-.04-.006h-.026l-.01-.006a.176.176,0,0,1-.04-.041l-1.6-2.262v2.2a.159.159,0,0,1-.156.162h-.562a.16.16,0,0,1-.156-.162v-3.65a.159.159,0,0,1,.156-.163h.63l.008.005h0l.008.006.009.008.01.01.012.016,1.6,2.259v-2.168a.16.16,0,0,1,.156-.163h.561v-.015h0a.159.159,0,0,1,.156.163Zm3.1-1.529a.16.16,0,0,1-.156.163h-1.528v.616h1.528a.16.16,0,0,1,.156.164v.587a.16.16,0,0,1-.156.164h-2.242a.158.158,0,0,1-.108-.045.168.168,0,0,1-.044-.113v-3.648a.165.165,0,0,1,.043-.112.151.151,0,0,1,.108-.046h2.243a.159.159,0,0,1,.155.164v.589a.158.158,0,0,1-.156.161l-1.527-.012v.617h1.528a.16.16,0,0,1,.156.164Z"
        transform="translate(821.916 -1632.95)"></path>
    </symbol>
    <symbol id='facebook' viewBox='0 0 20 20' fill='currentColor'>
      <g transform="translate(6 1)">
        <path
          d="M-742.7,3557.872v8.326a.217.217,0,0,0,.217.217h3.092a.217.217,0,0,0,.217-.217v-8.461h2.242a.217.217,0,0,0,.216-.2l.216-2.55a.217.217,0,0,0-.216-.235h-2.457v-1.808a.768.768,0,0,1,.767-.768h1.727a.217.217,0,0,0,.217-.217v-2.549a.217.217,0,0,0-.217-.217H-739.6a3.1,3.1,0,0,0-3.1,3.1v2.458h-1.546a.217.217,0,0,0-.217.217v2.55a.217.217,0,0,0,.217.217h1.546Z"
          transform="translate(744.461 -3549.195)"></path>
      </g>
    </symbol>
    <symbol id='dark-mode' viewBox='0 0 20 20' fill='currentColor'>
      <path
        d="M14.349,11.031,16.69,8.69,14.349,6.349V3.031H11.031L8.69.69,6.349,3.031H3.031V6.349L.69,8.69l2.341,2.341v3.317H6.349L8.69,16.69l2.341-2.341h3.317Zm-5.659,1.9V4.446a4.244,4.244,0,0,1,0,8.488Z"
        transform="translate(1.31 1.31)"></path>
    </symbol>
    <symbol id='globe' viewBox='0 0 30 30' fill='currentColor'>
      <g transform="translate(7 7)">
        <path
          d="M15.76,8A7.939,7.939,0,0,0,8.142,0H7.625A7.933,7.933,0,0,0-.24,8a7.933,7.933,0,0,0,7.865,8h.517A7.939,7.939,0,0,0,15.76,8ZM7.895,14.777a6.372,6.372,0,0,1-2.551-4.286h5.079A6.373,6.373,0,0,1,7.895,14.777ZM5.153,9.349A13.4,13.4,0,0,1,5.075,8q.005-.687.079-1.371h5.461q.073.683.079,1.371a13.4,13.4,0,0,1-.079,1.36ZM1.153,8a6.971,6.971,0,0,1,.135-1.371h2.7a13.867,13.867,0,0,0,0,2.731h-2.7A6.727,6.727,0,0,1,1.153,8ZM7.895,1.143a6.432,6.432,0,0,1,2.528,4.331H5.344A6.431,6.431,0,0,1,7.895,1.143Zm3.9,5.429h2.7A6.97,6.97,0,0,1,14.636,8,6.727,6.727,0,0,1,14.5,9.36H11.8q.056-.678.045-1.36a13.669,13.669,0,0,0-.067-1.383Zm2.36-1.143H11.6a9.439,9.439,0,0,0-1.73-3.977,6.788,6.788,0,0,1,4.27,4.023ZM5.895,1.451a9.441,9.441,0,0,0-1.73,4.023H1.625a6.788,6.788,0,0,1,4.27-4.023Zm-4.27,9.04H4.164a9.487,9.487,0,0,0,1.73,4.034,6.788,6.788,0,0,1-4.27-4.034Zm8.247,4.034a9.487,9.487,0,0,0,1.73-4.034h2.539a6.788,6.788,0,0,1-4.27,4.034Z"
          transform="translate(0.24 0)"></path>
      </g>
    </symbol>
    <symbol id='messenger' viewBox='0 0 30 30' fill='currentColor'>
      <path
        d="M2596.637,1548.362c-.937-.147-2.114-.312-3.28-.527a1.8,1.8,0,0,0-1.163.1c-.746.35-1.5.675-2.262,1a1.068,1.068,0,0,1-1.587-1.015c-.019-.661-.059-1.321-.058-1.981a1.387,1.387,0,0,0-.49-1.086,11.935,11.935,0,0,1-3.506-5.751,12.548,12.548,0,0,1,9.683-15.919,13.369,13.369,0,0,1,11.08,2.323,11.873,11.873,0,0,1,4.83,8.292,12.536,12.536,0,0,1-10.6,14.288C2598.5,1548.223,2597.691,1548.257,2596.637,1548.362Zm2.683-8.688a1.965,1.965,0,0,0,1.656-.986q1.865-2.962,3.731-5.924a1.147,1.147,0,0,0,.131-.249.515.515,0,0,0-.2-.655,1.2,1.2,0,0,0-.653-.086c-.133.014-.253.16-.376.252q-1.86,1.41-3.719,2.823a.841.841,0,0,1-1.239.005c-.925-.692-1.848-1.388-2.774-2.079a1.979,1.979,0,0,0-3.083.576q-1.294,2.047-2.585,4.1c-.377.6-.76,1.193-1.128,1.8a.621.621,0,0,0,.279.968.715.715,0,0,0,.716-.183q1.926-1.471,3.859-2.931a.835.835,0,0,1,1.239,0q1.4,1.048,2.8,2.1A2.178,2.178,0,0,0,2599.321,1539.674Z"
        transform="translate(-2581.81 -1520.591)"></path>
    </symbol>
  </defs>
</svg>