<svg xmlns="http://www.w3.org/2000/svg" width="278.528" height="37.764" viewBox="0 0 278.528 37.764"><defs><style>.a,.b{fill:#1d2080;}.a{font-size:12px;font-family:NotoSansCJKtc-Medium, Noto Sans CJK TC;font-weight:500;letter-spacing:0.08em;}.c{fill:#ddddde;}</style></defs><g transform="translate(15 -20.107)"><g transform="translate(160.528 35.107)"><text class="a" transform="translate(0 11)"><tspan x="0" y="0">台灣挖礦整合平台</tspan></text></g></g><g transform="translate(-32.308 -81.65)"><path class="b" d="M99.678,108.728a15.263,15.263,0,0,1-3.56.392,10.492,10.492,0,0,1-3.679-.624,8.51,8.51,0,0,1-2.891-1.754,8,8,0,0,1-1.892-2.713,9.454,9.454,0,0,1,.012-7.076,7.9,7.9,0,0,1,1.916-2.712,8.508,8.508,0,0,1,2.867-1.721A10.278,10.278,0,0,1,96,91.92a11.1,11.1,0,0,1,3.666.589,8.613,8.613,0,0,1,1.829.869,1,1,0,0,1,.211,1.507l-1.182,1.323a.965.965,0,0,1-1.285.144,4.986,4.986,0,0,0-.912-.518,5.343,5.343,0,0,0-2.186-.427,4.923,4.923,0,0,0-1.951.38,4.7,4.7,0,0,0-1.551,1.062,4.82,4.82,0,0,0-1.023,1.616,5.584,5.584,0,0,0-.364,2.044,6.292,6.292,0,0,0,.329,2.077,4.332,4.332,0,0,0,2.574,2.69,5.815,5.815,0,0,0,2.174.381,8.322,8.322,0,0,0,1.34-.1,5.34,5.34,0,0,0,.82-.2.538.538,0,0,0,.355-.515V102.79a.55.55,0,0,0-.55-.55h-1.63a.994.994,0,0,1-.993-.993v-1.2a.994.994,0,0,1,.993-.993h4.876a.994.994,0,0,1,.994.993v5.48a3.2,3.2,0,0,1-2.373,3.077Q99.924,108.669,99.678,108.728Z"/><path class="b" d="M118.445,97.392a4.948,4.948,0,0,1-.54,2.413,4.4,4.4,0,0,1-1.457,1.581,6.517,6.517,0,0,1-2.116.877,11.007,11.007,0,0,1-2.491.277h-1.448a.549.549,0,0,0-.55.549v4.622a.993.993,0,0,1-.993.993h-2.033a.993.993,0,0,1-.993-.993V93.352a.994.994,0,0,1,.993-.993h5.118a11.725,11.725,0,0,1,2.55.265,6.059,6.059,0,0,1,2.068.855,4.157,4.157,0,0,1,1.387,1.547A5.022,5.022,0,0,1,118.445,97.392Zm-4.019.023a1.736,1.736,0,0,0-.235-.947,1.624,1.624,0,0,0-.635-.577,2.765,2.765,0,0,0-.9-.277,7.744,7.744,0,0,0-1.046-.069h-1.213a.549.549,0,0,0-.55.549v2.757a.549.549,0,0,0,.55.549h1.142a6.093,6.093,0,0,0,1.081-.092,2.919,2.919,0,0,0,.929-.323,1.745,1.745,0,0,0,.646-.612A1.792,1.792,0,0,0,114.426,97.415Z"/><path class="b" d="M134.463,105.23a5.852,5.852,0,0,1-1.446,2.077,6.7,6.7,0,0,1-2.268,1.352,9.266,9.266,0,0,1-5.911,0,6.45,6.45,0,0,1-2.233-1.352,5.854,5.854,0,0,1-1.41-2.077,7.072,7.072,0,0,1-.493-2.69V93.352a.993.993,0,0,1,.993-.993H123.7a.994.994,0,0,1,.994.993v8.865a4.5,4.5,0,0,0,.176,1.27,3.253,3.253,0,0,0,.541,1.074,2.526,2.526,0,0,0,.964.75,3.908,3.908,0,0,0,2.89,0,2.64,2.64,0,0,0,.976-.75,2.989,2.989,0,0,0,.54-1.074,4.768,4.768,0,0,0,.165-1.27V93.352a.994.994,0,0,1,.993-.993h2.032a.994.994,0,0,1,.994.993v9.188A6.943,6.943,0,0,1,134.463,105.23Z"/><path class="b" d="M154.3,108.7a.994.994,0,0,1-.994-1l.086-10.565h-.07l-4.084,10.921a.993.993,0,0,1-.93.645h-1.436a.994.994,0,0,1-.933-.653l-3.97-10.913h-.07l.086,10.565a.993.993,0,0,1-.993,1H139.2a.993.993,0,0,1-.993-.993V93.352a.994.994,0,0,1,.993-.993h4.028a.992.992,0,0,1,.934.656l3.552,9.825h.094l3.393-9.812a.992.992,0,0,1,.939-.669h4.111a.994.994,0,0,1,.994.993v14.359a.993.993,0,0,1-.994.993Z"/><path class="b" d="M160.656,107.711V93.352a.994.994,0,0,1,.994-.993h2.055a.994.994,0,0,1,.994.993v14.359a.993.993,0,0,1-.994.993H161.65A.993.993,0,0,1,160.656,107.711Z"/><path class="b" d="M179.256,108.7a.994.994,0,0,1-.842-.466l-6.406-10.223h-.07l.085,9.687a.994.994,0,0,1-.994,1h-1.906a.993.993,0,0,1-.993-.993V93.352a.994.994,0,0,1,.993-.993h3.04a.994.994,0,0,1,.842.466l6.383,10.2h.071l-.086-9.664a.994.994,0,0,1,.994-1h1.9a.994.994,0,0,1,.994.993v14.359a.993.993,0,0,1-.994.993Z"/><path class="b" d="M186.7,107.711V93.352a.994.994,0,0,1,.994-.993h9.2a.994.994,0,0,1,.994.993V94.69a.993.993,0,0,1-.994.993h-5.766a.55.55,0,0,0-.55.55v1.995a.549.549,0,0,0,.55.549h5.367a.994.994,0,0,1,.993.994v1.176a.994.994,0,0,1-.993.993h-5.367a.55.55,0,0,0-.55.55v2.3a.549.549,0,0,0,.55.549h6.189a.994.994,0,0,1,.994.993v1.384a.993.993,0,0,1-.994.993h-9.623A.993.993,0,0,1,186.7,107.711Z"/><path class="b" d="M75.918,103.648l-5.579-8.69a7.056,7.056,0,0,0-8.947-2.584c-.548.261-1.1.509-1.659.753L58.721,87.5a7.123,7.123,0,0,0-9.008-5.569,82.312,82.312,0,0,0-13.43,5.246,7.134,7.134,0,0,0-2.852,10.234l5.579,8.691a7.09,7.09,0,0,0,5.959,3.259,8.406,8.406,0,0,0,2.964-.737c.571-.218,1.126-.448,1.683-.692l1.011,5.623a7.128,7.128,0,0,0,9.009,5.57,82.361,82.361,0,0,0,13.429-5.247,7.133,7.133,0,0,0,2.853-10.234Zm-29.551,1.6a3.5,3.5,0,0,1-4.2-1.23l-5.523-8.6a3.326,3.326,0,0,1-.409-2.72,3.425,3.425,0,0,1,1.777-2.151,77.7,77.7,0,0,1,12.7-4.96,3.421,3.421,0,0,1,.961-.139,3.4,3.4,0,0,1,3.325,2.785L56.787,98.2l.017.1a3.507,3.507,0,0,1-2.262,3.765C53.858,102.362,47.244,104.951,46.367,105.251Z"/><path class="c" d="M72.709,105.645a3.321,3.321,0,0,1,.407,2.72,3.406,3.406,0,0,1-1.773,2.152,78.164,78.164,0,0,1-12.7,4.962,3.385,3.385,0,0,1-4.282-2.649l-1.136-6.3c.848-.309,1.711-.659,2.566-.989,3.273-1.268,5.411-4.324,4.787-7.794l-.14-.8c.855-.364,1.71-.736,2.551-1.135a3.312,3.312,0,0,1,4.2,1.233Z"/></g></svg>