<svg xmlns="http://www.w3.org/2000/svg" width="40" height="40" viewBox="0 0 40 40">
  <defs>
    <style>
      .a {
        fill: #fff;
        stroke: #3569f5;
        stroke-miterlimit: 10;
        stroke-width: 3px;
      }

      .b {
        fill: #3569f5;
      }

      .c {
        fill: none;
      }

      .d {
        stroke: none;
      }
    </style>
  </defs>
  <g transform="translate(7 7)">
    <g class="a">
      <rect class="d" width="25" height="25" rx="2.5" />
      <rect class="c" x="1.5" y="1.5" width="22" height="22" rx="1" />
    </g>
  </g>
  <path class="b"
    d="M18.841,7.622a1.627,1.627,0,0,1-1.622,1.622,1.378,1.378,0,0,1-.414-.057l-2.887,2.879a1.433,1.433,0,0,1,.057.422,1.622,1.622,0,1,1-3.244,0,1.433,1.433,0,0,1,.057-.422L8.72,10a1.595,1.595,0,0,1-.843,0l-3.69,3.7a1.378,1.378,0,0,1,.057.414,1.622,1.622,0,1,1-1.622-1.622,1.378,1.378,0,0,1,.414.057l3.7-3.69a1.433,1.433,0,0,1-.057-.422,1.622,1.622,0,1,1,3.244,0,1.433,1.433,0,0,1-.057.422l2.068,2.068a1.595,1.595,0,0,1,.843,0l2.879-2.887a1.378,1.378,0,0,1-.057-.414,1.622,1.622,0,1,1,3.244,0Z"
    transform="translate(9.596 9.277)" />
  <rect class="c" width="40" height="40" />
</svg>