<svg xmlns="http://www.w3.org/2000/svg" xmlns:xlink="http://www.w3.org/1999/xlink" width="40" height="40"
  viewBox="0 0 40 40">
  <defs>
    <style>
      .a {
        fill: none;
      }

      .b {
        fill: url(#a);
      }
    </style>
    <linearGradient id="a" x1="0.5" x2="0.5" y2="1" gradientUnits="objectBoundingBox">
      <stop offset="0" stop-color="#fff" />
      <stop offset="0.805" stop-color="#6485dd" />
      <stop offset="1" stop-color="#6485dd" />
    </linearGradient>
  </defs>
  <rect class="a" width="40" height="40" />
  <path class="b"
    d="M308.733,420.89a1,1,0,0,0,.832-1.144l-.312-1.977a1,1,0,0,0-1.144-.829l-.158-.991a1,1,0,1,0-1.973.315l.31,1.96v.017l.312,1.974a1,1,0,0,0,.985.844c.022,0,.044,0,.067-.005.236,1.156.445,2.319.589,3.479.076.753-.143,1.047-.315,1.2a3.843,3.843,0,0,1-2.577.435V413a4.007,4.007,0,0,0-4-4h-8a4,4,0,0,0-4,4v15h-.5a2.5,2.5,0,0,0,0,5h17a2.5,2.5,0,0,0,0-5h-.5v-.834c.234.014.467.027.676.027a3.708,3.708,0,0,0,2.572-.715,2.3,2.3,0,0,0,.637-2.057c-.145-1.176-.355-2.35-.592-3.517l.09-.014ZM301.349,417a2,2,0,0,1-2,2h-4a2,2,0,0,1-2-2v-2a2,2,0,0,1,2-2h4a2,2,0,0,1,2,2Z"
    transform="translate(-277.349 -401)" />
</svg>